<svg xmlns="http://www.w3.org/2000/svg" xmlns:xlink="http://www.w3.org/1999/xlink" width="84" height="59.8" viewBox="0 0 84 59.8">
  <defs>
    <clipPath id="clip-path">
      <rect id="長方形_1248" data-name="長方形 1248" width="84" height="59.799" fill="none"/>
    </clipPath>
  </defs>
  <g id="グループ_1641" data-name="グループ 1641" transform="translate(0 0)">
    <path id="パス_899" data-name="パス 899" d="M81.373,0,55.207,26.165l-5.233-5.233L39.508,31.4l5.233,5.234,5.247-5.221,5.22,5.221L91.839,0Z" transform="translate(-8.109 0)" fill="#1a1311"/>
    <path id="パス_900" data-name="パス 900" d="M0,0,26.166,26.165,31.4,20.932,10.468,0Z" transform="translate(0)" fill="#1a1311"/>
    <path id="パス_901" data-name="パス 901" d="M52.678,0,63.144,10.466,73.61,0Z" transform="translate(-10.813 0)" fill="#8e8e8f"/>
    <path id="パス_902" data-name="パス 902" d="M26.339,0l15.7,15.7,5.247-5.22L36.805,0Z" transform="translate(-5.406 0)" fill="#535252"/>
    <g id="グループ_1640" data-name="グループ 1640" transform="translate(0 0)">
      <g id="グループ_1639" data-name="グループ 1639" clip-path="url(#clip-path)">
        <path id="パス_903" data-name="パス 903" d="M9.414,68.118c0,1.694-1.1,3.571-4.021,3.571H0V59.261H5.032c2.272,0,3.734,1.371,3.734,3.211a2.512,2.512,0,0,1-1.75,2.58,2.872,2.872,0,0,1,2.4,3.066M2.832,61.732v2.381H4.816a1.194,1.194,0,0,0,.017-2.381Zm3.734,6.1a1.388,1.388,0,0,0-1.515-1.389H2.832v2.778H5.051a1.39,1.39,0,0,0,1.515-1.389" transform="translate(0 -12.164)" fill="#1a1311"/>
        <rect id="長方形_1246" data-name="長方形 1246" width="2.832" height="12.427" transform="translate(12.384 47.097)" fill="#1a1311"/>
        <path id="パス_904" data-name="パス 904" d="M54.955,59.261l-2.506,7.431-2.012-7.431H48.163l-2.011,7.431-2.507-7.431H40.814L45,71.688h2.219L49.3,63.607l2.085,8.081H53.6l4.184-12.427Z" transform="translate(-8.377 -12.164)" fill="#1a1311"/>
        <rect id="長方形_1247" data-name="長方形 1247" width="2.832" height="12.427" transform="translate(51.893 47.097)" fill="#1a1311"/>
        <path id="パス_905" data-name="パス 905" d="M83.055,59.261V71.688H80.566l-4.075-7.143v7.143H73.658V59.261h2.6l3.967,7.053V59.261Z" transform="translate(-15.119 -12.164)" fill="#1a1311"/>
        <path id="パス_906" data-name="パス 906" d="M35.838,65.016H29.369v2.29h3.1a3.644,3.644,0,1,1-.521-4.485l2.006-2.007a6.488,6.488,0,1,0,1.9,4.589c0-.131-.012-.259-.02-.388" transform="translate(-4.696 -12.093)" fill="#1a1311"/>
        <path id="パス_907" data-name="パス 907" d="M102.324,65.016H95.855v2.29h3.1a3.644,3.644,0,1,1-.521-4.485l2.006-2.007a6.488,6.488,0,1,0,1.9,4.589c0-.131-.012-.259-.02-.388" transform="translate(-18.343 -12.093)" fill="#1a1311"/>
      </g>
    </g>
  </g>
</svg>
